<?xml version="1.0"?>
<svg xmlns="http://www.w3.org/2000/svg" xmlns:xlink="http://www.w3.org/1999/xlink" xmlns:svgjs="http://svgjs.com/svgjs" version="1.1" width="512" height="512" x="0" y="0" viewBox="0 0 100 100" style="enable-background:new 0 0 512 512" xml:space="preserve" class=""><g><g xmlns="http://www.w3.org/2000/svg" id="Layer_2" data-name="Layer 2"><path d="M92.5,81.79H88L66.16,35.16V22.5H85A2.5,2.5,0,0,0,87.5,20V7.5A2.5,2.5,0,0,0,85,5H63.66a2.5,2.5,0,0,0-2.5,2.5V35L44.73,61.28l-11.5-8.17a2.48,2.48,0,0,0-3.56.71l-17.48,28H7.5a2.5,2.5,0,0,0,0,5h85a2.5,2.5,0,0,0,0-5ZM82.5,17.5H66.16V10H82.5Zm-50,41.22L44,66.89a2.48,2.48,0,0,0,1.94.42,2.53,2.53,0,0,0,1.63-1.13L63.35,40.93,82.5,81.79H18.08Z" fill="#4d6f80" data-original="#000000"/></g></g></svg>
